<svg width="250" height="50" viewBox="0 0 250 50" fill="none" xmlns="http://www.w3.org/2000/svg">
<rect x="0.5" y="0.5" width="249" height="49" rx="4.5" fill="white" stroke="#DEDDE4"/>
<path d="M64.438 29.154C66.678 29.154 67.826 27.908 67.826 26.382C67.826 24.688 66.51 24.03 64.676 23.596C63.038 23.204 62.086 22.854 62.086 21.86C62.086 20.978 62.954 20.194 64.144 20.194C65.152 20.194 66.104 20.656 66.902 21.426L67.574 20.572C66.692 19.76 65.628 19.2 64.2 19.2C62.352 19.2 60.98 20.404 60.98 21.944C60.98 23.61 62.198 24.212 64.13 24.66C65.81 25.052 66.72 25.458 66.72 26.48C66.72 27.348 65.964 28.16 64.48 28.16C63.136 28.16 62.142 27.586 61.33 26.774L60.644 27.628C61.61 28.58 62.856 29.154 64.438 29.154ZM70.1679 20.446C70.5459 20.446 70.8539 20.124 70.8539 19.746C70.8539 19.382 70.5459 19.06 70.1679 19.06C69.7759 19.06 69.4679 19.382 69.4679 19.746C69.4679 20.124 69.7759 20.446 70.1679 20.446ZM69.6359 29H70.6859V21.762H69.6359V29ZM78.4225 21.762V23.008C77.8625 22.126 76.9385 21.594 75.7905 21.594C73.8445 21.594 72.4585 23.008 72.4585 25.024C72.4585 27.04 73.8445 28.468 75.7905 28.468C76.9385 28.468 77.8625 27.936 78.4225 27.054V28.23C78.4225 29.644 77.4425 30.47 75.7765 30.47C74.8805 30.47 74.0125 30.148 73.4525 29.616L72.9905 30.442C73.6485 31.002 74.7405 31.408 75.9165 31.408C78.0025 31.408 79.4725 30.092 79.4725 28.23V21.762H78.4225ZM75.9865 27.53C74.5725 27.53 73.5645 26.494 73.5645 25.024C73.5645 23.568 74.5725 22.532 75.9865 22.532C77.4145 22.532 78.4225 23.568 78.4225 25.024C78.4225 26.494 77.4145 27.53 75.9865 27.53ZM85.1389 21.594C84.1169 21.594 83.1789 22.154 82.7589 22.924V21.762H81.7089V29H82.7589V24.394C82.7589 23.386 83.7809 22.532 84.9989 22.532C86.0629 22.532 86.8049 23.358 86.8049 24.534V29H87.8549V24.394C87.8549 22.756 86.7349 21.594 85.1389 21.594ZM95.076 21.762V26.368C95.076 27.376 94.054 28.23 92.836 28.23C91.772 28.23 91.03 27.404 91.03 26.228V21.762H89.98V26.368C89.98 28.006 91.1 29.168 92.696 29.168C93.718 29.168 94.656 28.608 95.076 27.838V29H96.126V21.762H95.076ZM102.045 21.594C100.883 21.594 99.9592 22.168 99.4132 23.12V21.762H98.3632V31.408H99.4132V27.642C99.9592 28.594 100.883 29.168 102.045 29.168C103.949 29.168 105.377 27.6 105.377 25.374C105.377 23.162 103.949 21.594 102.045 21.594ZM101.849 28.23C100.421 28.23 99.4132 27.04 99.4132 25.374C99.4132 23.708 100.421 22.532 101.849 22.532C103.263 22.532 104.271 23.708 104.271 25.374C104.271 27.04 103.263 28.23 101.849 28.23ZM113.101 29H114.095L116.041 23.218L117.959 29H118.953L121.389 21.762H120.269L118.463 27.6L116.489 21.762H115.579L113.605 27.6L111.799 21.762H110.679L113.101 29ZM123.434 20.446C123.812 20.446 124.12 20.124 124.12 19.746C124.12 19.382 123.812 19.06 123.434 19.06C123.042 19.06 122.734 19.382 122.734 19.746C122.734 20.124 123.042 20.446 123.434 20.446ZM122.902 29H123.952V21.762H122.902V29ZM129.238 27.936C129.084 28.104 128.804 28.23 128.482 28.23C128.062 28.23 127.698 27.852 127.698 27.32V22.7H129.476V21.762H127.698V19.774H126.648V21.762H125.514V22.7H126.648V27.32C126.648 28.398 127.376 29.168 128.412 29.168C128.902 29.168 129.378 29 129.756 28.706L129.238 27.936ZM134.686 21.594C133.664 21.594 132.726 22.154 132.306 22.924V19.214H131.256V29H132.306V24.394C132.306 23.386 133.328 22.532 134.546 22.532C135.61 22.532 136.352 23.358 136.352 24.534V29H137.402V24.394C137.402 22.756 136.282 21.594 134.686 21.594ZM149.215 21.762V23.008C148.655 22.126 147.731 21.594 146.583 21.594C144.637 21.594 143.251 23.008 143.251 25.024C143.251 27.04 144.637 28.468 146.583 28.468C147.731 28.468 148.655 27.936 149.215 27.054V28.23C149.215 29.644 148.235 30.47 146.569 30.47C145.673 30.47 144.805 30.148 144.245 29.616L143.783 30.442C144.441 31.002 145.533 31.408 146.709 31.408C148.795 31.408 150.265 30.092 150.265 28.23V21.762H149.215ZM146.779 27.53C145.365 27.53 144.357 26.494 144.357 25.024C144.357 23.568 145.365 22.532 146.779 22.532C148.207 22.532 149.215 23.568 149.215 25.024C149.215 26.494 148.207 27.53 146.779 27.53ZM155.848 29.168C157.878 29.168 159.586 27.432 159.586 25.374C159.586 23.316 157.878 21.594 155.848 21.594C153.818 21.594 152.096 23.316 152.096 25.374C152.096 27.432 153.818 29.168 155.848 29.168ZM155.848 28.23C154.406 28.23 153.202 26.928 153.202 25.374C153.202 23.834 154.406 22.532 155.848 22.532C157.276 22.532 158.48 23.834 158.48 25.374C158.48 26.928 157.276 28.23 155.848 28.23ZM164.68 29.168C166.71 29.168 168.418 27.432 168.418 25.374C168.418 23.316 166.71 21.594 164.68 21.594C162.65 21.594 160.928 23.316 160.928 25.374C160.928 27.432 162.65 29.168 164.68 29.168ZM164.68 28.23C163.238 28.23 162.034 26.928 162.034 25.374C162.034 23.834 163.238 22.532 164.68 22.532C166.108 22.532 167.312 23.834 167.312 25.374C167.312 26.928 166.108 28.23 164.68 28.23ZM175.78 21.762V23.008C175.22 22.126 174.296 21.594 173.148 21.594C171.202 21.594 169.816 23.008 169.816 25.024C169.816 27.04 171.202 28.468 173.148 28.468C174.296 28.468 175.22 27.936 175.78 27.054V28.23C175.78 29.644 174.8 30.47 173.134 30.47C172.238 30.47 171.37 30.148 170.81 29.616L170.348 30.442C171.006 31.002 172.098 31.408 173.274 31.408C175.36 31.408 176.83 30.092 176.83 28.23V21.762H175.78ZM173.344 27.53C171.93 27.53 170.922 26.494 170.922 25.024C170.922 23.568 171.93 22.532 173.344 22.532C174.772 22.532 175.78 23.568 175.78 25.024C175.78 26.494 174.772 27.53 173.344 27.53ZM179.052 29H180.102V19.214H179.052V29ZM185.486 28.23C184.058 28.23 183.064 27.194 182.91 25.78H188.832C188.832 23.246 187.586 21.594 185.402 21.594C183.456 21.594 181.832 23.204 181.832 25.36C181.832 27.586 183.568 29.168 185.5 29.168C186.508 29.168 187.782 28.734 188.412 28.048L187.768 27.362C187.32 27.852 186.34 28.23 185.486 28.23ZM185.444 22.532C186.886 22.532 187.656 23.54 187.796 24.842H182.924C183.12 23.442 184.156 22.532 185.444 22.532Z" fill="#5D5A6F"/>
<rect x="5" y="5" width="40" height="40" rx="7" fill="#E93E30"/>
<g clip-path="url(#clip0_1_5585)">
<path d="M34.8226 22H32.6356V24.177H30.4586V26.364H32.6356V28.541H34.8226V26.364H36.9996V24.177H34.8226V22Z" fill="white"/>
<path d="M20.5 32.5C24.828 32.5 27.703 29.462 27.703 25.174C27.703 24.683 27.652 24.304 27.581 23.926H20.501V26.504H24.758C24.584 27.599 23.469 29.737 20.501 29.737C17.944 29.737 15.856 27.619 15.856 25C15.856 22.381 17.943 20.262 20.501 20.262C21.964 20.262 22.936 20.886 23.489 21.418L25.525 19.464C24.214 18.237 22.526 17.5 20.5 17.5C16.356 17.5 13 20.856 13 25C13 29.144 16.356 32.5 20.5 32.5Z" fill="white"/>
</g>
<defs>
<clipPath id="clip0_1_5585">
<rect width="24" height="24" fill="white" transform="translate(13 13)"/>
</clipPath>
</defs>
</svg>
