<svg width="332" height="546" viewBox="0 0 332 546" fill="none" xmlns="http://www.w3.org/2000/svg">
<circle cx="166" cy="541" r="4.5" fill="white" stroke="#FF6652"/>
<circle cx="180" cy="541" r="4" fill="#FF6652" fill-opacity="0.5"/>
<circle cx="152" cy="541" r="4" fill="#FF6652" fill-opacity="0.5"/>
<path d="M318.057 477.494C316.604 476.678 314.785 476.02 312.857 475.582C308.499 474.596 303.641 474.523 298.906 474.462C257.869 473.963 217.114 473.78 176.066 473.78C143.744 473.525 111.435 473.257 79.1143 473.099C63.9179 473.026 48.685 472.965 33.5375 473.671C27.2636 473.963 20.7335 474.438 15.546 476.374C10.3585 478.309 7.06296 482.132 9.6994 485.224C14.0813 490.337 28.7649 490.045 37.248 490.057C102.659 490.154 168.083 489.96 233.494 489.753C255.392 489.68 277.289 489.619 299.15 488.986C304.044 488.84 309.097 488.657 313.492 487.476C317.898 486.307 321.547 483.897 321.279 481.255C321.145 479.819 319.887 478.528 318.057 477.494Z" fill="#D9E0FC"/>
<path d="M320.266 364.252C319.155 364.495 317.886 364.629 316.457 364.629C267.365 364.629 218.286 364.629 169.194 364.617C144.647 364.617 120.101 364.617 95.5676 364.605C84.1429 364.605 38.322 370.911 33.3542 359.65C32.3045 357.276 32.3045 354.659 32.3045 352.102C32.3045 303.906 32.4388 255.709 32.4388 207.513C32.4388 205.808 32.4388 204.092 32.4388 202.388C32.4388 198.784 35.6611 195.862 39.6281 195.862C93.3095 195.862 146.979 195.862 200.66 195.862C228.404 195.862 256.148 195.862 283.904 195.862C295.585 195.862 327.565 190.433 327.565 205.687C327.565 234.673 327.553 263.671 327.553 292.657C327.553 307.485 327.553 322.325 327.553 337.153C327.54 346.587 331.886 361.683 320.266 364.252Z" fill="#D9E0FC"/>
<path d="M303.702 354.452C299.223 357.52 290.935 355.779 284.039 355.779C270.453 355.779 256.88 355.779 243.295 355.779C206.543 355.779 169.804 355.779 133.052 355.779C96.0191 355.779 58.9987 355.779 21.966 355.779C20.721 355.779 19.7201 354.781 19.7201 353.539C19.7079 324.821 19.537 296.09 19.476 267.372C19.4394 253.007 19.4394 238.654 19.5004 224.288C19.537 214.89 15.6922 194.243 22.0271 186.89C23.8091 184.833 46.805 187.377 49.6734 187.377C62.0136 187.353 74.3536 187.328 86.6816 187.304C110.63 187.255 134.578 187.207 158.525 187.146C190.7 187.146 222.887 187.012 255.062 186.939C271.991 186.902 303.483 187 305.863 187.024C308.926 187.061 307.608 234.612 307.632 238.13C307.791 257.742 307.694 277.367 307.51 296.979C307.376 311.624 307.169 326.269 307.01 340.927C306.986 342.874 306.961 344.822 306.961 346.77C306.973 350.702 305.716 353.064 303.702 354.452Z" fill="#FF6652"/>
<path d="M297.782 339.892C288.97 339.661 280.133 339.831 271.32 339.831C262.495 339.831 253.67 339.843 244.858 339.843C227.208 339.855 209.57 339.868 191.921 339.88C156.817 339.904 121.7 339.916 86.5961 340.014C76.6972 340.038 66.7859 340.062 56.887 340.099C47.0002 340.123 37.0402 340.001 27.1778 340.695C26.6042 340.732 26.6042 341.535 27.1778 341.584C35.9783 342.205 44.8276 342.095 53.6403 342.168C62.4651 342.241 71.2899 342.217 80.1026 342.241C97.7523 342.29 115.39 342.302 133.04 342.327C168.144 342.375 203.26 342.4 238.364 342.424C248.263 342.436 258.174 342.436 268.073 342.448C277.972 342.461 287.883 342.655 297.782 342.4C299.406 342.363 299.418 339.928 297.782 339.892Z" fill="#9C4DF4"/>
<path d="M287.639 338.553C287.346 337.652 286.834 336.861 286.126 336.203C285.21 335.302 284.136 334.669 282.891 334.328C282.671 334.255 282.452 334.182 282.244 334.109C281.28 333.805 280.316 333.768 279.364 333.975C278.399 334.024 277.508 334.304 276.678 334.827C276.19 335.205 275.702 335.582 275.214 335.96C274.506 336.617 274.005 337.384 273.725 338.285C273.395 338.845 273.236 339.454 273.236 340.111C273.017 341.073 273.065 342.022 273.371 342.984C273.615 343.556 273.859 344.128 274.103 344.713C274.75 345.796 275.616 346.661 276.703 347.306C276.898 347.44 277.081 347.574 277.276 347.708C278.424 348.365 279.657 348.706 280.975 348.706C281.622 348.621 282.269 348.535 282.928 348.45C284.173 348.097 285.247 347.476 286.162 346.575C286.882 345.918 287.383 345.127 287.676 344.226C288.14 343.349 288.347 342.412 288.311 341.414C288.311 340.367 288.103 339.429 287.639 338.553Z" fill="#9C4DF4"/>
<path d="M250.387 402.295L49.8811 399.337L50.6744 192.393L249.801 193.927L250.387 402.295Z" fill="white" stroke="black" stroke-width="0.5" stroke-miterlimit="10"/>
<path d="M94.8351 355.657C94.237 363.278 93.6389 370.887 93.0408 378.508C92.9554 379.542 92.223 380.419 91.1245 380.419C87.6092 380.431 84.1061 380.443 80.5908 380.468C77.4417 380.48 74.2926 380.492 71.1435 380.504C70.3135 380.504 69.4469 380.516 68.7023 380.078C67.8845 379.591 67.4939 378.751 67.384 377.85C67.2254 376.377 67.3963 374.819 67.4329 373.334C67.555 367.052 67.7869 360.77 68.4826 354.513C68.6047 353.381 69.8741 353.125 70.4599 353.782C71.4852 353.466 72.718 353.612 73.7311 353.612C75.0005 353.612 76.2577 353.624 77.5271 353.624C82.6292 353.649 87.7435 353.673 92.8456 353.673C93.8587 353.673 94.9206 354.586 94.8351 355.657ZM89.3425 376.609C89.8063 370.29 90.2579 363.972 90.7217 357.654C87.7312 357.666 84.7286 357.69 81.7382 357.702C79.8829 357.715 78.0276 357.727 76.1845 357.739C75.2325 357.751 74.2926 357.751 73.3405 357.751C72.9988 357.751 72.657 357.751 72.3153 357.751C71.9491 358.056 71.4852 358.238 70.997 358.262C71.0947 360.296 71.1557 362.341 71.1923 364.386C71.2411 367.32 71.1923 370.254 71.1557 373.188C71.1435 373.955 71.1312 374.722 71.119 375.489C71.1068 375.89 71.1313 376.316 71.1313 376.743C71.2899 376.755 71.4364 376.767 71.5585 376.767L73.5847 376.755C78.8332 376.706 84.0817 376.657 89.3425 376.609Z" fill="#9C4DF4"/>
<path d="M94.8351 311.222C94.237 318.843 93.6389 326.452 93.0408 334.073C92.9554 335.108 92.223 335.984 91.1245 335.984C87.6092 335.996 84.1061 336.009 80.5908 336.033C77.4417 336.045 74.2926 336.057 71.1435 336.069C70.3135 336.069 69.4469 336.082 68.7023 335.643C67.8845 335.156 67.4939 334.316 67.384 333.415C67.2254 331.942 67.3963 330.384 67.4329 328.899C67.555 322.617 67.7869 316.336 68.4826 310.078C68.6047 308.946 69.8741 308.69 70.4599 309.348C71.4852 309.031 72.718 309.177 73.7311 309.177C75.0005 309.177 76.2577 309.189 77.5271 309.189C82.6292 309.214 87.7435 309.238 92.8456 309.238C93.8587 309.238 94.9206 310.151 94.8351 311.222ZM89.3425 332.174C89.8063 325.856 90.2579 319.537 90.7217 313.219C87.7312 313.231 84.7286 313.256 81.7382 313.268C79.8829 313.28 78.0276 313.292 76.1845 313.304C75.2325 313.304 74.2926 313.316 73.3405 313.316C72.9988 313.316 72.657 313.316 72.3153 313.316C71.9491 313.621 71.4852 313.803 70.997 313.828C71.0947 315.861 71.1557 317.906 71.1923 319.951C71.2411 322.885 71.1923 325.819 71.1557 328.753C71.1435 329.52 71.1312 330.287 71.119 331.054C71.1068 331.456 71.1313 331.882 71.1313 332.308C71.2899 332.32 71.4364 332.332 71.5585 332.332L73.5847 332.32C78.8332 332.271 84.0817 332.222 89.3425 332.174Z" fill="#9C4DF4"/>
<path d="M94.8351 266.788C94.237 274.409 93.6389 282.017 93.0408 289.638C92.9554 290.673 92.223 291.549 91.1245 291.549C87.6092 291.562 84.1061 291.574 80.5908 291.598C77.4417 291.61 74.2926 291.622 71.1435 291.635C70.3135 291.635 69.4469 291.647 68.7023 291.209C67.8845 290.722 67.4939 289.882 67.384 288.981C67.2254 287.508 67.3963 285.949 67.4329 284.464C67.555 278.182 67.7869 271.901 68.4826 265.643C68.6047 264.511 69.8741 264.255 70.4599 264.913C71.4852 264.596 72.718 264.742 73.7311 264.742C75.0005 264.742 76.2577 264.755 77.5271 264.755C82.6292 264.779 87.7435 264.803 92.8456 264.803C93.8587 264.803 94.9206 265.716 94.8351 266.788ZM89.3425 287.739C89.8063 281.421 90.2579 275.102 90.7217 268.784C87.7312 268.796 84.7286 268.821 81.7382 268.833C79.8829 268.845 78.0276 268.857 76.1845 268.869C75.2325 268.869 74.2926 268.882 73.3405 268.882C72.9988 268.882 72.657 268.882 72.3153 268.882C71.9491 269.186 71.4852 269.369 70.997 269.393C71.0947 271.426 71.1557 273.471 71.1923 275.516C71.2411 278.45 71.1923 281.384 71.1557 284.318C71.1435 285.085 71.1312 285.852 71.119 286.619C71.1068 287.021 71.1313 287.447 71.1313 287.873C71.2899 287.885 71.4364 287.897 71.5585 287.897L73.5847 287.885C78.8332 287.836 84.0817 287.788 89.3425 287.739Z" fill="#9C4DF4"/>
<path d="M202.906 269.113C196.498 268.942 190.078 269.076 183.669 269.088C177.322 269.101 170.963 269.101 164.616 269.113C151.788 269.125 138.959 269.186 126.143 269.247C122.567 269.259 118.991 269.283 115.414 269.295C111.789 269.307 108.115 269.234 104.502 269.49C104.038 269.527 104.038 270.172 104.502 270.196C107.688 270.415 110.922 270.354 114.12 270.379C117.331 270.415 120.528 270.415 123.739 270.427C130.086 270.464 136.445 270.488 142.792 270.525C155.62 270.586 168.449 270.574 181.265 270.598C188.479 270.61 195.704 270.768 202.906 270.574C203.858 270.561 203.858 269.137 202.906 269.113Z" fill="#969696"/>
<path d="M158.147 276.04C144.293 275.881 130.44 275.747 116.586 275.747C112.631 275.747 108.664 275.711 104.71 275.772C103.953 275.784 103.953 276.94 104.71 276.953C118.551 277.172 132.417 276.965 146.271 276.88C150.225 276.855 154.192 276.734 158.147 276.685C158.562 276.685 158.562 276.052 158.147 276.04Z" fill="#969696"/>
<path d="M200.684 283.405C188.198 283.174 175.699 283.356 163.212 283.38C150.726 283.405 138.227 283.417 125.74 283.441C118.685 283.454 111.643 283.466 104.588 283.587C104.014 283.6 104.014 284.464 104.588 284.476C117.074 284.707 129.573 284.634 142.06 284.647C154.546 284.671 167.045 284.683 179.532 284.707C186.587 284.72 193.629 284.78 200.684 284.647C201.49 284.647 201.49 283.417 200.684 283.405Z" fill="#969696"/>
<path d="M168.339 313.353C164.116 313.073 159.831 313.304 155.596 313.317C151.348 313.329 147.101 313.341 142.853 313.353C134.358 313.377 125.875 313.402 117.379 313.426C112.57 313.438 107.786 313.499 102.976 313.67C102.635 313.682 102.635 314.193 102.976 314.205C111.459 314.485 119.955 314.449 128.45 314.473C136.945 314.497 145.428 314.522 153.924 314.546C156.267 314.558 158.599 314.558 160.942 314.571C163.395 314.583 165.873 314.68 168.327 314.51C169.096 314.473 169.096 313.402 168.339 313.353Z" fill="#969696"/>
<path d="M194.057 323.129C182.217 322.788 170.353 322.922 158.513 322.897C146.783 322.873 135.066 322.861 123.336 322.824L113.339 322.8C110.019 322.788 106.663 322.642 103.343 322.897C102.537 322.958 102.537 324.091 103.343 324.151C106.297 324.383 109.275 324.261 112.229 324.261C115.195 324.249 118.148 324.249 121.114 324.237C127.034 324.224 132.966 324.212 138.886 324.2C150.616 324.176 162.334 324.164 174.064 324.139C180.728 324.127 187.392 324.127 194.057 323.932C194.569 323.908 194.569 323.141 194.057 323.129Z" fill="#969696"/>
<path d="M197.523 360.539C185.158 360.235 172.794 360.381 160.429 360.393C148.065 360.393 135.7 360.405 123.336 360.442C116.415 360.466 109.482 360.551 102.561 360.466C101.756 360.454 101.756 361.72 102.561 361.72C114.926 361.574 127.29 361.781 139.655 361.793C152.019 361.793 164.384 361.805 176.749 361.805C183.669 361.805 190.59 361.817 197.523 361.647C198.231 361.635 198.231 360.563 197.523 360.539Z" fill="#969696"/>
<path d="M122.555 367.064C116.012 367.064 109.482 367.198 102.952 367.259C102.488 367.259 102.488 367.965 102.952 367.965C109.482 368.026 116.024 368.16 122.555 368.16C123.275 368.172 123.275 367.064 122.555 367.064Z" fill="#969696"/>
<path d="M188.674 367.88C181.436 367.405 174.137 367.612 166.886 367.649C159.563 367.685 152.239 367.734 144.916 367.77C140.79 367.795 136.665 367.819 132.551 368.026C132.087 368.05 132.087 368.72 132.551 368.732C139.801 369.097 147.076 369 154.339 369.037C161.662 369.073 168.986 369.122 176.309 369.122C180.435 369.122 184.56 369.146 188.674 368.878C189.321 368.842 189.333 367.929 188.674 367.88Z" fill="#969696"/>
<path d="M160.613 375.05C153.374 374.673 146.075 374.953 138.837 374.977C131.648 375.001 124.434 374.977 117.245 375.233C113.132 375.379 108.994 375.33 104.881 375.342C104.466 375.342 104.466 375.987 104.881 375.987C119.344 376.06 133.796 376.328 148.26 376.389C152.386 376.401 156.511 376.499 160.625 376.28C161.406 376.243 161.406 375.099 160.613 375.05Z" fill="#969696"/>
<path d="M234.226 219.516C227.245 218.969 220.067 219.395 213.061 219.395C206.446 219.395 199.83 219.407 193.227 219.407C179.776 219.419 166.337 219.419 152.886 219.431C139.435 219.443 125.997 219.468 112.546 219.529C98.9485 219.589 85.0948 219.017 71.5463 220.186C68.5803 220.442 68.5681 224.471 71.5463 224.739C85.0948 225.908 98.9485 225.336 112.546 225.396C125.997 225.457 139.435 225.482 152.886 225.494C166.337 225.506 179.776 225.506 193.227 225.518C199.842 225.518 206.458 225.53 213.061 225.53C220.067 225.53 227.232 225.956 234.226 225.409C238.071 225.092 238.083 219.821 234.226 219.516Z" fill="black"/>
<path d="M201.673 236.499C199.439 234.734 197.67 235.05 194.838 235.05C192.201 235.05 189.565 235.05 186.928 235.05L170.45 235.062C159.245 235.074 148.04 235.074 136.835 235.087L103.88 235.111C98.1672 235.111 92.4549 235.172 86.7425 235.245C82.0066 235.306 75.6595 234.393 71.3631 236.548C70.2279 237.12 70.2279 238.934 71.3631 239.506C75.6717 241.673 81.9944 240.748 86.7425 240.808C92.2352 240.881 97.7278 240.93 103.22 240.942C114.425 240.954 125.63 240.954 136.835 240.967L169.791 240.991C175.504 240.991 181.216 241.003 186.928 241.003C189.565 241.003 192.201 241.003 194.838 241.003C197.596 241.003 199.464 241.295 201.673 239.554C202.54 238.885 202.527 237.181 201.673 236.499Z" fill="black"/>
<path d="M150.75 329.763C148.834 329.228 147.308 327.097 146.527 325.332C145.697 323.445 145.856 320.974 147.443 319.659C148.456 318.819 149.859 318.6 151.178 318.734C155.267 319.184 158.416 322.848 159.539 326.805C160.662 330.749 160.186 334.962 159.71 339.04C159.356 342.022 159.002 345.005 158.648 347.988C157.964 353.782 158.733 359.845 158.733 365.688C158.733 366.419 158.757 367.174 159.111 367.807C159.771 368.975 161.26 369.304 162.59 369.511C168.974 370.534 175.541 371.763 182.034 371.532C187.246 371.349 190.224 369.803 194.972 373.48C197.572 375.488 199.562 378.617 199.232 381.88C199.049 383.633 198.219 385.276 197.096 386.652C192.665 392.045 184.756 392.775 177.762 392.605C169.511 392.398 161.272 391.522 153.155 389.988C144.916 388.417 139.167 384.302 138.471 375.598C137.812 367.356 140.388 359.127 142.634 351.299C144.721 344.019 148.797 337.311 150.665 330.092C150.702 329.958 150.726 329.861 150.75 329.763Z" fill="#FBC2AA"/>
<path d="M197.011 377.692C196.95 377.326 196.889 376.961 196.828 376.608C196.303 372.993 195.803 368.476 199.745 367.344C202.345 366.589 206.898 366.93 208.631 364.52C209.192 363.74 209.351 362.766 209.485 361.829C209.693 360.49 209.888 359.139 210.096 357.8C202.54 359.09 199.391 352.346 198.439 346.04C197.463 339.6 197.67 331.565 203.358 327.255C206.983 324.504 212.061 323.846 216.321 325.453C220.58 327.06 223.913 330.834 225.121 335.217C226.012 338.455 224.95 339.636 224.767 342.984C224.547 346.77 224.889 353.307 224.682 357.093C224.535 359.638 224.755 362.608 226.146 364.824C226.781 365.834 227.55 366.699 228.624 367.246C229.405 367.648 231.431 367.429 231.92 367.965C234.69 370.996 237.278 374.21 240.281 376.998C233.189 379.968 225.78 382.086 218.2 383.377C212.891 384.29 202.15 387.419 198.488 381.782C197.682 380.54 197.279 379.128 197.011 377.692Z" fill="#FBC2AA"/>
<path d="M259.822 395.527C259.065 386.189 254.867 376.621 246.335 371.946C243.198 370.229 239.744 369.194 236.277 368.379C234.495 367.953 232.689 367.588 230.906 367.186C228.905 366.735 228.502 367.21 227.135 368.708C224.315 371.824 219.86 373.212 215.674 372.774C213.025 372.506 210.474 371.544 208.204 370.181C205.738 368.695 204.871 366.869 201.747 367.04C192.287 367.575 182.84 368.428 173.429 369.596C174.125 377.777 174.674 389.367 176.383 397.389C181.363 396.89 192.372 395.794 192.36 397.304C192.348 399.605 192.397 401.918 192.47 404.219C192.629 408.711 192.91 413.203 193.093 417.695C193.288 422.468 193.642 427.24 194.069 431.988C194.557 437.405 195.387 442.725 196.596 447.984C208.899 452.074 222.936 451.076 236.131 449.883C239.89 449.542 243.796 449.165 247.055 447.254C256.209 441.873 256.6 425.949 257.906 416.685C258.919 409.551 260.408 402.843 259.822 395.527Z" fill="#FF6652"/>
<path d="M165.434 488.572C165.593 488.34 165.764 488.109 165.935 487.89C169.12 483.812 174.625 481.158 179.129 478.759C184.097 476.118 189.651 473.939 195.375 474.267C200.538 474.559 207.703 478.053 208.777 483.507C208.899 484.128 208.948 484.786 208.704 485.358C208.094 486.794 206.153 486.916 204.591 486.928C197.926 486.989 191.518 489.034 185.293 491.238C182.095 492.37 178.909 493.575 175.663 494.61C172.77 495.535 165.739 499.589 163.713 495.377C162.602 493.076 164.152 490.446 165.434 488.572Z" fill="black"/>
<path d="M136.543 433.814C139.24 430.843 143.073 428.92 147.003 428.177C152.52 427.142 158.22 428.141 163.64 429.638C175.113 432.791 185.867 438.099 197.389 441.057C202.503 442.372 205.836 441.885 210.828 441.483C217.163 440.972 223.668 441.593 230.04 441.215C235.996 440.862 242.441 440.4 248.019 442.043C248.752 441.556 249.484 441.081 250.216 440.594C256.441 436.516 262.654 432.462 270.466 433.947C276.605 435.116 282.537 438.221 286.333 443.261C290.374 448.617 289.165 455.617 285.54 460.961C282.537 465.381 278.107 468.643 273.517 471.382C257.686 480.854 240.391 486.66 221.703 485.37C219.201 485.2 216.259 485.163 214.453 487.172C213.782 487.927 213.379 492.054 211.878 491.871C210.022 491.652 206.458 491.14 204.713 490.507C195.265 487.111 185.83 483.702 176.383 480.306C168.083 477.311 159.734 474.304 152.179 469.763C145.636 465.843 139.716 460.535 136.25 453.657C133.748 448.702 131.697 442.177 134.309 437.027C134.919 435.847 135.664 434.775 136.543 433.814Z" fill="#9C4DF4"/>
<path d="M253.732 448.057C248.422 450.699 242.868 452.391 237.779 455.532C232.701 458.661 227.892 462.313 222.362 464.687C218.786 466.221 213.586 466.817 210.157 468.521" stroke="black" stroke-width="0.5" stroke-miterlimit="10"/>
<path d="M214.575 486.454C214.587 486.441 214.587 486.417 214.599 486.405C215.1 485.261 215.588 484.116 216.089 482.972C217.077 480.695 218.066 478.431 219.042 476.155C219.152 475.899 227.635 480.196 228.368 480.793C228.697 481.061 229.015 481.353 229.222 481.718C229.515 482.217 229.576 482.814 229.649 483.386C229.845 484.993 230.089 486.636 229.784 488.231C229.478 489.826 228.49 491.396 226.952 491.908C225.78 492.297 224.511 492.017 223.314 491.749C221.032 491.226 218.798 490.739 216.552 490.081C215.905 489.887 214.209 489.826 213.745 489.363C213.159 488.791 214.319 487.062 214.575 486.454Z" fill="#FBC2AA"/>
<path d="M224.023 477.895C224.645 477.98 225.292 478.005 225.963 477.944C227.33 477.834 228.673 477.445 230.04 477.469C232.762 477.518 233.946 479.636 235.081 481.779C237.083 485.565 240.696 488.328 243.625 491.372C247.299 495.182 249.423 498.773 248.825 504.227C248.617 506.151 247.836 508.354 245.969 508.878C244.248 509.365 242.551 508.16 241.172 507.027C237.425 503.96 233.665 500.904 229.918 497.836C228.209 496.436 226.464 494.573 224.523 493.526C223.29 492.869 221.886 492.382 220.605 491.737C221.984 487.184 223.144 482.57 224.023 477.895Z" fill="black"/>
<path d="M204.871 450.541C204.188 450.2 203.663 449.579 203.26 448.422C202.577 446.475 202.979 444.174 204.078 442.457C205.494 440.242 208.094 438.537 210.669 438.002C213.318 437.442 215.881 436.504 218.579 435.956C220.519 435.567 222.423 435.031 224.328 434.496C230.15 432.864 236.424 431.622 241.953 429.188C242.295 429.042 242.636 428.871 242.832 428.555C243.088 428.129 242.978 427.593 242.856 427.106C241.001 419.668 239.304 412.193 237.754 404.682C237.229 402.125 236.717 399.544 236.741 396.939C236.79 392.203 238.694 387.516 241.965 384.083C243.967 381.977 246.738 380.285 249.618 380.614C251.986 380.894 254.024 382.525 255.367 384.509C256.71 386.494 257.43 388.795 258.15 391.059C260.567 398.716 263.374 406.471 264.461 414.433C264.741 416.515 264.729 418.621 264.717 420.715C264.68 426.741 264.522 433.144 261.202 438.172C250.265 454.68 224.901 452.647 207.898 451.064C206.629 450.979 205.653 450.93 204.871 450.541Z" fill="#FBC2AA"/>
<path d="M209.68 322.313C206.604 322.775 203.651 324.017 201.173 326.038C198.414 328.29 197.548 330.676 196.974 334.207C196.937 334.438 196.913 334.693 197.047 334.888C197.194 335.095 197.487 335.144 197.743 335.18C202.137 335.704 206.556 336.081 210.986 336.313C211.475 336.337 211.975 336.361 212.427 336.179C213.55 335.728 213.989 334.207 215.136 333.817C215.295 335.29 215.185 336.8 214.831 338.236C214.673 338.869 214.465 339.539 214.673 340.16C215.088 341.413 216.565 341.389 217.517 341.961C218.701 342.667 219.848 344.104 220.3 345.394C220.898 347.099 221.166 348.961 222.216 350.471C222.484 350.86 222.802 351.213 223.107 351.566C223.681 352.224 224.242 352.881 224.816 353.539C225.17 353.271 225.341 352.845 225.487 352.443C226.683 349.229 227.953 346.04 228.709 342.704C229.393 339.709 229.368 336.52 228.587 333.549C228.246 332.21 227.623 330.859 227.001 329.629C226.659 328.947 226.207 328.229 225.768 327.596C225.633 327.401 224.315 325.685 224.083 325.831C224.376 325.636 224.742 325.271 224.608 324.881C224.45 324.419 223.375 324.747 223.082 324.906C223.253 324.638 223.497 324.407 223.668 324.139C223.839 323.871 223.949 323.518 223.815 323.226C223.729 323.043 223.558 322.909 223.375 322.812C222.899 322.58 222.326 322.641 221.874 322.897C221.398 323.165 220.995 323.652 220.885 324.175C217.272 322.593 213.672 321.716 209.68 322.313Z" fill="black"/>
<path d="M162.261 438.878C172.892 443.674 181.448 452.001 191.115 458.502C200.148 464.565 210.156 469.021 220.104 473.452C219.579 474.584 219.372 475.716 218.859 476.848" stroke="black" stroke-width="0.5" stroke-miterlimit="10"/>
<path d="M207.667 348.389C207.032 350.459 204.493 351.713 202.467 350.97" stroke="#1C1C1B" stroke-width="0.5" stroke-miterlimit="10"/>
<path d="M218.395 347.78C222.313 348.754 224.755 344.64 223.558 341.949C221.898 338.212 216.65 338.833 215.686 342.765" fill="#FBC2AA"/>
<path d="M220.397 341.645C219.665 341.438 218.81 341.56 218.188 341.961C217.565 342.363 217.211 343.021 217.236 343.666" stroke="#1C1C1B" stroke-width="0.5" stroke-miterlimit="10"/>
<path d="M249.569 375.988C242.416 376.742 235.862 381.697 233.213 388.381C230.467 395.32 231.834 403.111 233.238 410.44C237.851 410.306 241.928 410.622 246.518 409.722C252.474 408.553 258.26 406.715 263.862 404.45C262.202 393.847 259.126 383.682 251.534 376.036C250.802 375.282 250.619 375.878 249.569 375.988Z" fill="#FF6652"/>
<path d="M168.925 307.412C162.993 310.005 157.623 313.353 152.533 317.346C150.067 319.281 147.736 321.46 145.539 323.688C144.367 324.881 143.256 326.147 142.158 327.401C141.926 326.707 141.694 326.026 141.462 325.344C140.717 323.128 139.875 320.974 138.948 318.831C138.081 316.798 137.129 314.801 136.104 312.841C135.03 310.784 133.992 308.033 131.795 306.998C130.281 306.28 128.927 307.18 128.719 308.763C128.414 311.1 130.269 313.267 131.319 315.24C132.356 317.2 133.321 319.184 134.2 321.217C135.005 323.055 135.75 324.991 136.421 326.914C137.153 328.996 137.666 331.175 138.435 333.233C139.192 335.254 141.828 335.753 143.061 333.829C144.66 331.321 146.906 329.045 148.944 326.878C151.031 324.662 153.216 322.568 155.45 320.499C159.954 316.323 164.751 312.403 169.719 308.787C170.561 308.179 169.865 306.998 168.925 307.412Z" fill="#9C4DF4"/>
<path d="M238.157 456.372H177.896C177.017 456.372 176.297 455.653 176.297 454.777C176.297 453.9 177.017 453.182 177.896 453.182H238.157C239.035 453.182 239.756 453.9 239.756 454.777C239.756 455.653 239.035 456.372 238.157 456.372Z" fill="black"/>
<path d="M229.222 454.205H176.48L165.531 427.227C165.177 426.351 165.824 425.389 166.776 425.389H216.625C217.174 425.389 217.663 425.718 217.87 426.229L229.222 454.205Z" fill="black"/>
<path d="M191.823 439.815C192.385 441.276 194.277 442.457 196.046 442.457C197.816 442.457 198.805 441.276 198.243 439.815C197.682 438.354 195.79 437.173 194.02 437.173C192.25 437.173 191.262 438.354 191.823 439.815Z" stroke="white" stroke-width="0.5" stroke-miterlimit="10"/>
<path d="M209.705 357.641C209.803 358.652 209.717 359.662 209.619 360.66C209.681 360.648 209.754 360.624 209.815 360.612C211.89 359.966 213.599 358.286 214.477 356.302C213.025 357.105 211.377 357.556 209.705 357.641Z" fill="black"/>
<path d="M150.848 329.921C148.565 328.363 146.259 326.793 144.416 324.747C144.037 324.333 143.683 323.871 143.586 323.323C143.488 322.775 143.769 322.13 144.306 321.984C144.904 321.826 145.453 322.325 145.917 322.751C147.662 324.37 149.969 325.405 152.349 325.624" fill="white"/>
<path d="M150.848 329.921C148.565 328.363 146.259 326.793 144.416 324.747C144.037 324.333 143.683 323.871 143.586 323.323C143.488 322.775 143.769 322.13 144.306 321.984C144.904 321.826 145.453 322.325 145.917 322.751C147.662 324.37 149.969 325.405 152.349 325.624" stroke="#1C1C1B" stroke-width="0.5" stroke-miterlimit="10"/>
<path d="M230.479 498.907C230.577 498.847 230.674 498.774 230.772 498.7C230.882 498.615 231.004 498.567 231.126 498.506C231.37 498.396 231.602 498.287 231.846 498.189C231.749 498.238 231.639 498.274 231.541 498.323C231.993 498.128 232.432 497.885 232.823 497.593C232.92 497.52 233.006 497.447 233.103 497.361C233.262 497.215 233.421 497.081 233.64 497.02C234.031 496.899 234.519 497.094 234.727 497.447C234.91 497.763 234.898 498.116 234.739 498.433C234.702 498.506 234.654 498.567 234.617 498.64C234.532 498.773 234.446 498.907 234.348 499.029C234.104 499.358 233.848 499.674 233.555 499.954C233.262 500.247 232.945 500.514 232.591 500.721C232.371 500.855 232.139 501.001 231.883 501.05C231.627 501.111 231.358 501.135 231.102 501.16C230.992 501.147 230.882 501.135 230.784 501.111C230.626 501.074 230.491 501.001 230.369 500.892C230.174 500.733 229.991 500.514 229.93 500.259C229.796 499.723 230.015 499.212 230.479 498.907Z" fill="#FF6652"/>
<path d="M227.562 495.56C227.623 495.353 227.733 495.17 227.879 495.012C228.148 494.708 228.429 494.403 228.697 494.087C228.819 493.953 228.954 493.868 229.124 493.819C229.283 493.734 229.454 493.697 229.637 493.709C229.82 493.697 229.991 493.746 230.15 493.819C230.308 493.868 230.455 493.965 230.577 494.087C230.65 494.172 230.711 494.269 230.784 494.355C230.907 494.561 230.968 494.781 230.968 495.012C230.955 495.134 230.931 495.243 230.919 495.365C230.858 495.584 230.748 495.779 230.577 495.949C230.272 496.229 229.967 496.497 229.649 496.765C229.539 496.887 229.405 496.972 229.246 497.021C229.1 497.094 228.941 497.13 228.77 497.13C228.6 497.142 228.441 497.106 228.294 497.021C228.136 496.972 228.002 496.887 227.892 496.765C227.831 496.68 227.757 496.595 227.696 496.509C227.587 496.315 227.525 496.108 227.525 495.876C227.525 495.779 227.538 495.669 227.562 495.56Z" fill="#FF6652"/>
<path d="M223.949 492.382C224.145 492.09 224.34 491.798 224.535 491.506C224.608 491.372 224.718 491.25 224.84 491.177C224.95 491.067 225.097 491.006 225.243 490.958C225.402 490.909 225.561 490.897 225.719 490.933C225.878 490.946 226.024 490.982 226.159 491.079C226.244 491.14 226.317 491.201 226.403 491.262C226.549 491.408 226.659 491.591 226.708 491.786C226.72 491.895 226.732 491.992 226.757 492.102C226.757 492.321 226.696 492.516 226.598 492.699C226.403 492.991 226.207 493.283 226.012 493.575C225.939 493.709 225.829 493.831 225.707 493.904C225.597 494.013 225.451 494.074 225.304 494.123C225.146 494.172 224.987 494.184 224.828 494.147C224.669 494.135 224.523 494.099 224.389 494.001C224.303 493.94 224.23 493.879 224.145 493.819C223.998 493.672 223.888 493.49 223.839 493.295C223.827 493.186 223.815 493.088 223.803 492.979C223.778 492.772 223.839 492.565 223.949 492.382Z" fill="#FF6652"/>
<path d="M181.485 489.57C181.558 489.314 181.753 489.047 181.985 488.925C182.242 488.791 182.547 488.73 182.827 488.815C182.913 488.852 182.998 488.888 183.084 488.925C183.242 489.022 183.377 489.156 183.474 489.314C183.657 489.558 183.853 489.801 184.036 490.045C184.133 490.166 184.243 490.276 184.341 490.386C184.39 490.434 184.439 490.483 184.475 490.532C184.561 490.617 184.646 490.714 184.707 490.824C184.768 490.921 184.817 491.055 184.854 491.165C184.939 491.433 185.012 491.7 185.098 491.968C185.195 492.297 185.061 492.65 184.793 492.857C184.536 493.052 184.146 493.1 183.853 492.918C183.657 492.796 183.474 492.674 183.279 492.553C183.23 492.516 183.181 492.492 183.133 492.455C182.937 492.321 182.779 492.175 182.657 491.968C182.583 491.859 182.522 491.749 182.449 491.64C182.193 491.213 181.875 490.824 181.582 490.422C181.436 490.191 181.424 489.813 181.485 489.57Z" fill="#FF6652"/>
<path d="M186.148 487.975C186.221 487.719 186.416 487.452 186.648 487.33C187.026 487.123 187.503 486.965 187.771 487.379C188.198 488.048 188.625 488.718 189.065 489.387C189.407 489.923 189.761 490.544 189.553 491.14C189.492 491.335 189.358 491.518 189.162 491.615C188.894 491.737 188.577 491.652 188.308 491.506C187.844 491.25 187.588 490.799 187.307 490.361C187.234 490.252 187.173 490.142 187.1 490.033C186.843 489.606 186.526 489.217 186.233 488.815C186.099 488.596 186.074 488.219 186.148 487.975Z" fill="#FF6652"/>
<path d="M177.201 491.396C177.249 491.238 177.347 491.092 177.469 490.982C177.713 490.751 178.043 490.593 178.385 490.605C178.714 490.617 179.08 490.727 179.3 490.982C179.788 491.567 180.276 492.139 180.753 492.723C180.875 492.845 180.972 492.979 181.021 493.137C181.106 493.295 181.143 493.454 181.131 493.636C181.143 493.819 181.094 493.977 181.021 494.135C180.972 494.294 180.875 494.44 180.753 494.549C180.508 494.781 180.179 494.939 179.837 494.927C179.508 494.914 179.141 494.805 178.922 494.549C178.433 493.965 177.945 493.393 177.469 492.808C177.347 492.687 177.249 492.553 177.201 492.394C177.115 492.236 177.079 492.078 177.091 491.895C177.079 491.713 177.115 491.554 177.201 491.396Z" fill="#FF6652"/>
<path d="M284.295 449.067C283.734 450.187 284.027 451.587 283.49 452.72C283.099 453.56 282.318 454.144 281.781 454.911C280.951 456.104 280.817 457.784 281.61 459.001C282.391 460.219 284.112 460.791 285.418 460.146C286.456 459.634 287.054 458.514 287.469 457.431C288.323 455.191 289.227 451.685 288.494 449.299C287.884 447.363 285.345 446.949 284.295 449.067Z" fill="black"/>
<path d="M134.663 440.728C135.603 439.974 136.994 439.791 138.081 440.351C139.155 440.911 139.826 442.189 139.594 443.37C139.472 444.015 139.106 444.624 139.082 445.281C139.045 446.121 139.558 446.888 139.826 447.692C140.229 448.885 140.058 450.297 139.216 451.222C138.374 452.16 136.848 452.464 135.798 451.782C134.687 451.052 134.407 449.579 134.199 448.264C133.833 445.902 132.38 442.554 134.663 440.728Z" fill="black"/>
<path d="M194.435 394.589C194.325 394.48 194.105 394.455 193.996 394.589C193.703 394.955 193.385 395.32 193.117 395.697C192.983 395.88 192.848 396.062 192.714 396.245C192.58 396.428 192.421 396.61 192.299 396.817C192.153 397.061 192.482 397.304 192.69 397.109C192.848 396.951 192.995 396.768 193.141 396.598C193.288 396.428 193.434 396.257 193.581 396.087C193.886 395.746 194.154 395.381 194.435 395.028C194.533 394.894 194.557 394.723 194.435 394.589Z" fill="black"/>
<path d="M240.183 410.208C239.255 410.22 238.352 410.403 237.485 410.719C237.217 408.881 236.948 407.055 236.667 405.217C236.374 403.281 236.02 401.346 235.752 399.398C235.74 399.3 235.569 399.325 235.581 399.422C235.801 401.406 235.935 403.391 236.167 405.375C236.399 407.323 236.655 409.271 236.924 411.219C236.948 411.377 237.168 411.486 237.302 411.438C238.218 411.06 239.17 410.866 240.17 410.841C240.598 410.829 240.598 410.208 240.183 410.208Z" fill="black"/>
<path d="M107.212 472.721C105.467 475.96 101.756 477.53 98.3506 478.321C97.3253 478.565 96.2878 478.747 95.2503 478.942C94.4325 479.088 93.5659 479.186 92.7847 479.49C91.0026 480.172 92.9556 481.267 93.8588 481.669C94.3959 481.913 94.5302 482.692 94.2494 483.167C93.9199 483.702 93.2974 483.8 92.7481 483.556C92.0036 483.215 91.1858 482.716 90.6121 482.071L89.4525 485.967H71.9493L70.5822 461.278L96.9714 460.84L96.2756 463.165C99.1928 462.325 102.781 462.008 105.393 463.761C108.347 465.758 108.835 469.69 107.212 472.721ZM104.209 465.758C101.78 464.054 98.2285 464.699 95.6165 465.551C95.5921 465.563 95.5677 465.575 95.5432 465.575L91.9914 477.445C92.6017 477.214 93.273 477.055 93.871 476.934C97.2887 476.24 101.158 475.753 103.807 473.245C105.796 471.37 106.87 467.633 104.209 465.758Z" fill="#9C4DF4"/>
<path d="M91.9058 466.951C91.3566 468.874 90.8073 470.786 90.3313 472.721C90.2337 473.111 90.8073 473.257 90.9294 472.88C91.5519 470.98 92.1011 469.057 92.6504 467.146C92.7846 466.683 92.0401 466.488 91.9058 466.951Z" fill="black"/>
<path d="M89.4282 476.203C89.1475 477.165 88.8667 478.115 88.586 479.076C88.3053 480.038 88.0978 481.012 87.8537 481.974C87.756 482.375 88.3419 482.534 88.464 482.144C88.7691 481.195 89.1109 480.245 89.3794 479.295L90.185 476.41C90.3193 475.923 89.5625 475.716 89.4282 476.203Z" fill="black"/>
<path d="M88.4152 473.44C88.3175 473.415 88.1832 473.464 88.1588 473.586C88.0856 474 88.0246 474.414 87.9513 474.815C87.9391 474.925 87.9758 475.047 88.0978 475.071C88.1955 475.095 88.3298 475.047 88.3542 474.925C88.4274 474.511 88.4884 474.097 88.5616 473.695C88.5739 473.586 88.525 473.464 88.4152 473.44Z" fill="black"/>
<path d="M260.628 431.646C260.469 433.911 259.419 436.017 257.869 437.648C257.686 437.843 257.967 438.111 258.162 437.94C259.932 436.346 260.908 434.02 260.982 431.646C260.982 431.415 260.64 431.427 260.628 431.646Z" fill="black"/>
<path d="M145.831 381.916C144.891 381.49 143.952 381.052 143.012 380.638C142.816 380.553 142.633 380.845 142.841 380.93C143.781 381.368 144.721 381.782 145.66 382.208C145.856 382.294 146.039 382.001 145.831 381.916Z" fill="black"/>
<path d="M83.8865 410.123C81.4331 413.215 78.4427 415.845 75.794 418.767C72.9866 421.859 70.8262 425.474 68.0189 428.567C65.5777 431.269 62.6605 433.546 59.4625 435.287C57.2044 436.516 51.9437 439.474 49.2584 438.817C44.0587 437.527 47.9524 428.798 49.588 425.925C51.5409 422.48 54.2872 419.497 57.1922 416.831C60.2315 414.055 63.5271 411.584 66.7983 409.1C70.4722 406.3 74.134 403.513 77.808 400.713C78.699 400.043 79.5657 399.337 80.4811 398.692C81.2379 398.156 82.0679 397.718 82.9955 397.608C84.5945 397.438 86.047 398.485 86.816 399.824C88.8299 403.342 86.0347 407.42 83.8865 410.123Z" fill="#9C4DF4"/>
<path d="M28.2522 415.711C28.9968 411.718 30.6201 407.944 31.5478 404C32.7806 398.765 32.7806 393.323 33.7448 388.04C34.7091 382.756 36.8818 377.339 41.2759 374.247C42.4965 373.395 43.8879 372.725 45.3649 372.615C48.0379 372.408 50.589 374.064 52.1025 376.28C53.6038 378.483 54.2263 381.174 54.5925 383.828C56.045 394.261 53.9944 405.156 48.8314 414.348C47.2202 417.221 45.316 419.923 43.9124 422.894C42.0449 426.826 41.0684 431.16 40.8731 435.506C40.7877 437.393 40.8242 439.365 39.9942 441.069C39.2009 442.725 36.2959 445.245 34.2941 444.186C32.5121 443.236 31.2793 437.648 30.6446 435.847C28.4109 429.419 26.9828 422.504 28.2522 415.711Z" fill="#9C4DF4"/>
<path d="M10.7489 415.638C10.3827 413.69 10.0775 411.45 11.3592 409.94C13.129 407.847 16.6931 408.711 18.6095 410.671C20.8187 412.923 21.7341 416.149 22.0149 419.29C22.2956 422.431 22.0393 425.596 22.2834 428.725C22.6618 433.533 24.2242 438.147 25.2372 442.859C26.1649 447.144 24.4073 450.066 21.2215 445.829C19.0611 442.968 17.4377 439.657 16.1073 436.346C13.4586 429.699 12.0793 422.626 10.7489 415.638Z" fill="#9C4DF4"/>
<path d="M70.4844 412.655C69.5202 414.408 68.4338 416.052 67.14 417.574C65.8462 419.083 64.418 420.483 62.9533 421.834C60.0117 424.537 56.8382 426.996 54.0431 429.857C52.7004 431.233 51.4432 432.694 50.3691 434.288C49.1119 436.151 48.1842 438.184 47.4763 440.314C46.6341 442.834 45.9994 445.427 45.3037 447.996C44.5713 450.674 43.839 453.365 43.1066 456.043C42.3132 458.965 41.5198 461.874 40.8851 464.833C40.58 466.269 40.3114 467.718 40.0917 469.179C39.9941 469.86 39.9208 470.554 39.8476 471.248C39.811 471.626 39.7866 471.991 39.7621 472.368C39.7499 472.514 39.75 472.66 39.75 472.807C39.7866 472.466 39.8476 472.125 39.8842 471.808C39.9819 471.041 40.0918 470.274 40.2138 469.507C40.4213 468.205 40.6776 466.914 40.9584 465.636C41.532 463.055 42.24 460.523 42.9479 457.979C44.4004 452.756 45.7797 447.509 47.3176 442.323C48.0133 439.986 48.8434 437.685 50.1128 435.579C51.1259 433.911 52.3464 432.389 53.6769 430.965C56.3988 428.067 59.5235 425.596 62.5262 422.991C65.7973 420.142 69.215 417.001 71.1435 413.045C71.351 412.594 70.7285 412.217 70.4844 412.655Z" fill="#1C1C1B"/>
<path d="M39.7135 473.403C39.7379 473.208 39.7379 473.001 39.7501 472.794C39.7135 473.001 39.7013 473.208 39.7135 473.403Z" fill="#1C1C1B"/>
<path d="M39.7258 473.768C39.7136 473.647 39.7136 473.525 39.7136 473.403C39.7014 473.525 39.677 473.647 39.6526 473.756C39.6281 473.817 39.7258 473.817 39.7258 473.768Z" fill="#1C1C1B"/>
<path d="M38.1632 421.068C38.5172 416.405 39.3473 411.767 40.9584 407.36C41.0073 407.226 40.7998 407.165 40.751 407.299C37.7849 415.09 37.3455 423.478 37.4431 431.732C37.492 435.981 37.675 440.229 37.7116 444.478C37.7605 448.885 37.6018 453.28 37.2234 457.662C36.8206 462.301 36.2348 466.915 35.6245 471.528C30.5346 460.779 25.8841 449.822 21.7585 438.671C20.5501 435.396 19.3784 432.097 18.2554 428.786C18.109 428.36 17.4376 428.542 17.5719 428.968C21.5266 440.704 26.0306 452.257 31.0838 463.567C32.5119 466.756 33.9766 469.921 35.5024 473.075C35.6855 473.464 36.1859 473.208 36.2225 472.88C37.3577 464.005 38.4196 455.118 38.3586 446.158C38.2975 437.819 37.5285 429.443 38.1632 421.068Z" fill="#1C1C1B"/>
<path d="M21.4291 459.294C23.3821 468.266 24.7125 477.664 23.3088 486.697C26.4579 486.709 42.3378 486.795 47.4521 486.746C47.3911 485.955 47.33 485.175 47.2934 484.384C47.0005 478.784 47.3666 473.148 49.0388 467.767C49.4416 466.464 50.2839 462.228 50.8209 460.962L50.7233 459.294H21.4291Z" fill="#FF6652"/>
<path d="M51.9438 454.315L20.538 454.363C20.2695 454.363 20.0133 454.388 19.7569 454.436V461.68C20.0133 461.729 20.2695 461.753 20.538 461.753L51.2847 461.692L51.9438 454.315Z" fill="#1A0400"/>
<path d="M46.2437 465.308C45.8043 465.819 45.4625 466.464 45.1574 467.061C44.8522 467.657 44.5959 468.29 44.3517 468.923C43.8635 470.226 43.5706 471.541 43.4363 472.916C43.3875 473.489 44.3518 473.635 44.4616 473.05C44.6935 471.784 44.9986 470.506 45.4136 469.276C45.6211 468.668 45.8653 468.071 46.1338 467.475C46.3901 466.89 46.7197 466.318 46.9638 465.722C47.1225 465.332 46.5122 464.991 46.2437 465.308Z" fill="#1C1C1B"/>
<path d="M44.022 476.544C44.0342 476.13 43.3873 476.13 43.3751 476.544C43.3018 478.638 42.8991 480.707 42.9601 482.813C42.9845 483.483 43.9121 483.446 43.9731 482.813C44.2051 480.72 43.9488 478.638 44.022 476.544Z" fill="#1C1C1B"/>
<path d="M41.9836 484.908C39.811 484.555 37.5774 484.445 35.3925 484.713C34.6602 484.798 34.7944 485.809 35.5268 485.711C37.6384 485.431 39.7744 485.37 41.8861 485.614C42.2888 485.662 42.3864 484.969 41.9836 484.908Z" fill="#1C1C1B"/>
<path d="M297.575 393.299C295.378 394.273 292.619 396.087 292.29 398.68C292.192 399.447 290.996 399.788 290.813 398.875C290.532 397.487 289.91 396.221 288.884 395.222C287.822 394.176 286.394 393.725 285.247 392.788C284.893 392.496 285.088 391.826 285.528 391.741C287.774 391.302 290.19 390.073 291.191 387.979C291.081 387.602 290.996 387.2 290.959 386.786C290.91 386.226 291.423 385.763 291.936 385.678C292.509 385.593 292.985 385.958 293.169 386.482C293.657 387.906 294.353 389.16 295.219 390.329C295.952 390.962 296.781 391.509 297.563 392.045C297.965 392.337 298.112 393.068 297.575 393.299Z" fill="#D9E0FC"/>
<path d="M305.948 407.567C305.423 407.056 304.862 406.569 304.313 406.094C304.606 405.948 304.911 405.789 305.204 405.631C305.594 405.412 305.753 404.852 305.509 404.475C305.24 404.049 304.789 403.988 304.349 404.17C304.215 404.231 304.081 404.292 303.959 404.353C304.117 403.379 304.288 402.393 304.508 401.419C304.679 400.652 303.519 400.323 303.324 401.09C303.043 402.21 302.726 403.33 302.421 404.438C301.896 403.988 301.371 403.525 300.846 403.075C300.565 402.831 300.15 402.807 299.882 403.075C299.613 403.342 299.626 403.769 299.882 404.036C300.382 404.572 300.883 405.108 301.371 405.656C301.127 405.789 300.871 405.923 300.639 406.082C300.248 406.325 299.821 406.52 299.406 406.727C299.04 406.909 298.93 407.433 299.125 407.774C299.345 408.151 299.796 408.236 300.175 408.042C300.553 407.847 300.944 407.628 301.334 407.482C301.456 407.433 301.566 407.384 301.676 407.336C301.615 407.579 301.554 407.823 301.505 408.054C301.31 408.869 301.017 409.709 300.98 410.549C300.932 411.73 302.677 411.913 303.007 410.817C303.226 410.063 303.226 409.235 303.324 408.456C303.348 408.261 303.385 408.066 303.409 407.859C303.763 408.236 304.129 408.614 304.508 408.991C304.886 409.356 305.57 409.405 305.948 408.991C306.314 408.602 306.351 407.956 305.948 407.567Z" fill="#D9E0FC"/>
<path d="M30.2663 240.65C28.6673 239.944 27.4834 238.678 26.8609 237.059C26.6412 236.475 25.8478 236.438 25.6403 237.059C25.3718 237.85 24.9079 238.556 24.383 239.189C24.3586 239.226 24.3342 239.262 24.3098 239.287C23.8338 239.689 23.2845 240.029 22.6864 240.224C22.2958 240.346 22.2714 240.93 22.6864 241.04C23.5042 241.259 24.2121 241.588 24.8102 242.196C25.3839 242.793 25.7501 243.523 25.8843 244.327C25.9942 244.984 26.9951 244.704 26.8975 244.047C26.7876 243.353 27.52 242.842 28.0448 242.562C28.765 242.172 29.534 241.843 30.2907 241.502C30.5959 241.369 30.5958 240.796 30.2663 240.65Z" fill="#D9E0FC"/>
<path d="M22.0393 223.716C22.4177 223.875 22.9059 224.203 22.735 224.569C22.6374 224.776 22.3932 224.849 22.1735 224.909C19.8788 225.469 15.6434 226.346 15.7899 229.536C15.8143 230.217 14.789 230.327 14.6181 229.694C14.02 227.356 12.5919 225.238 10.4192 224.118C9.93101 223.863 10.1996 223.193 10.6756 223.156C11.8962 223.071 13.0557 222.572 13.9833 221.793C15.0941 220.868 15.3748 220.344 15.6555 218.981C15.7654 218.433 16.0828 217.861 16.6321 217.727C16.7297 217.703 16.8518 217.69 16.9494 217.739C17.1447 217.812 17.2301 218.043 17.2912 218.238C18.0479 220.429 19.5126 222.45 21.5632 223.509C21.7341 223.57 21.8806 223.643 22.0393 223.716Z" fill="#D9E0FC"/>
<path d="M270.441 257.049C269.867 256.696 268.879 256.598 268.476 256.038C267.756 255.016 269.513 255.052 270.002 254.918C270.905 254.675 271.637 253.981 272.126 253.177C272.614 252.374 272.882 251.461 273.139 250.56C273.749 250.889 273.871 251.668 274.127 252.313C274.567 253.409 275.568 254.212 276.703 254.504C277.106 254.602 279.29 255.077 277.777 255.856C276.764 256.367 275.616 256.805 274.786 257.609C274.262 258.12 273.48 260.567 272.882 260.47C272.614 260.433 272.418 260.214 272.296 259.97C272.187 259.727 272.138 259.459 272.065 259.204C271.93 258.741 271.711 258.303 271.405 257.925C271.149 257.584 270.819 257.292 270.441 257.049Z" fill="#D9E0FC"/>
<path d="M13.5685 262.028C11.0419 262.843 9.63828 265.302 9.01578 267.713C8.83269 268.395 7.72193 268.261 7.77076 267.542C7.84399 266.264 7.36796 265.047 6.55017 264.073C5.5737 262.904 4.38972 262.551 3.03487 261.942C2.83957 261.857 2.60766 261.736 2.57104 261.516C2.53442 261.309 2.7053 261.115 2.87619 260.993C3.44986 260.603 4.19444 260.64 4.87797 260.506C6.51356 260.202 7.89281 258.826 8.22237 257.207C8.2956 256.866 8.32003 256.501 8.4665 256.184C8.61297 255.868 8.94252 255.6 9.29649 255.649C9.7237 255.709 9.94336 256.172 10.0898 256.574C10.3828 257.389 10.5781 258.156 11.2006 258.777C11.9452 259.52 12.8484 260.104 13.7516 260.616C14.3497 260.956 14.1788 261.833 13.5685 262.028Z" fill="#D9E0FC"/>
<path d="M6.84 61H11.31L16.2 46.84L21.06 61H25.5L31.74 40.39H26.94L23.13 54.22L18.57 40.39H13.77L9.21 54.22L5.4 40.39H0.6L6.84 61ZM40.031 57.49C38.201 57.49 36.851 56.35 36.341 54.67H47.531C47.531 48.82 44.681 45.13 39.821 45.13C35.291 45.13 31.841 48.52 31.841 53.2C31.841 57.97 35.441 61.36 40.061 61.36C42.341 61.36 45.011 60.4 46.391 58.96L43.601 56.11C42.761 56.92 41.261 57.49 40.031 57.49ZM40.001 49C41.771 49 42.911 49.99 43.331 51.52H36.401C36.971 49.96 38.351 49 40.001 49ZM50.4942 61H54.8742V40.03H50.4942V61ZM66.2873 61.36C68.8673 61.36 70.9673 60.31 72.4973 58.63L69.5873 56.17C68.7773 57.07 67.5173 57.67 66.3173 57.67C64.0073 57.67 62.0873 55.63 62.0873 53.2C62.0873 50.83 64.0073 48.82 66.2873 48.82C67.4873 48.82 68.7173 49.39 69.4973 50.26L72.4073 47.77C70.9073 46.15 68.8373 45.13 66.3173 45.13C61.7273 45.13 57.8273 48.82 57.8273 53.23C57.8273 57.64 61.6973 61.36 66.2873 61.36ZM82.4306 61.36C87.0206 61.36 90.8606 57.64 90.8606 53.23C90.8606 48.82 87.0206 45.13 82.4306 45.13C77.8106 45.13 73.9406 48.82 73.9406 53.23C73.9406 57.64 77.8106 61.36 82.4306 61.36ZM82.4306 57.67C80.0906 57.67 78.1406 55.63 78.1406 53.23C78.1406 50.83 80.0906 48.82 82.4306 48.82C84.7406 48.82 86.6906 50.83 86.6906 53.23C86.6906 55.63 84.7406 57.67 82.4306 57.67ZM112.274 45.13C109.964 45.13 108.044 46.24 107.234 47.95C106.274 46.21 104.444 45.13 102.314 45.13C100.394 45.13 98.8643 46.06 98.1143 47.53V45.49H93.7343V61H98.1143V51.64C98.1143 49.99 99.3443 48.82 101.114 48.82C102.704 48.82 103.844 50.08 103.844 51.88V61.03H108.044V51.64C108.044 49.99 109.304 48.82 111.044 48.82C112.664 48.82 113.804 50.08 113.804 51.88V61.03H118.004V51.13C118.004 47.62 115.514 45.13 112.274 45.13ZM129.006 57.49C127.176 57.49 125.826 56.35 125.316 54.67H136.506C136.506 48.82 133.656 45.13 128.796 45.13C124.266 45.13 120.816 48.52 120.816 53.2C120.816 57.97 124.416 61.36 129.036 61.36C131.316 61.36 133.986 60.4 135.366 58.96L132.576 56.11C131.736 56.92 130.236 57.49 129.006 57.49ZM128.976 49C130.746 49 131.886 49.99 132.306 51.52H125.376C125.946 49.96 127.326 49 128.976 49ZM156.008 57.16C155.708 57.46 155.108 57.67 154.508 57.67C153.698 57.67 153.038 56.95 153.038 55.93V49.03H156.398V45.49H153.038V41.23H148.838V45.49H146.708V49.03H148.838V56.62C148.838 59.41 150.758 61.36 153.488 61.36C154.748 61.36 156.158 60.82 157.058 60.01L156.008 57.16ZM167.421 61.36C172.011 61.36 175.851 57.64 175.851 53.23C175.851 48.82 172.011 45.13 167.421 45.13C162.801 45.13 158.931 48.82 158.931 53.23C158.931 57.64 162.801 61.36 167.421 61.36ZM167.421 57.67C165.081 57.67 163.131 55.63 163.131 53.23C163.131 50.83 165.081 48.82 167.421 48.82C169.731 48.82 171.681 50.83 171.681 53.23C171.681 55.63 169.731 57.67 167.421 57.67ZM17.91 79.38V75.39H2.04V96H17.91V92.01H6.48V87.48H16.83V83.49H6.48V79.38H17.91ZM32.7188 75.03V82.71C31.4888 81.09 29.6888 80.13 27.4988 80.13C23.3588 80.13 20.3588 83.49 20.3588 88.23C20.3588 93 23.3588 96.36 27.4988 96.36C29.6888 96.36 31.4888 95.4 32.7188 93.78V96H37.0988V75.03H32.7188ZM28.7588 92.67C26.3288 92.67 24.6188 90.84 24.6188 88.23C24.6188 85.65 26.3288 83.82 28.7588 83.82C31.0688 83.82 32.7188 85.65 32.7188 88.23C32.7188 90.84 31.0688 92.67 28.7588 92.67ZM51.2334 80.49V89.76L51.2034 89.67C51.2034 91.35 49.7934 92.67 47.9634 92.67C46.2234 92.67 45.0234 91.35 45.0234 89.43V80.49H40.7934V90.36C40.7934 93.87 43.1934 96.36 46.5534 96.36C48.5634 96.36 50.3034 95.46 51.2334 94.05V96H55.6134V80.49H51.2334ZM64.5612 96H68.6112L75.2412 80.49H70.6812L66.6012 90.96L62.4312 80.49H57.8412L64.5612 96ZM79.7545 78.36C81.0445 78.36 82.0945 77.28 82.0945 75.96C82.0945 74.73 81.0445 73.62 79.7545 73.62C78.4045 73.62 77.3545 74.73 77.3545 75.96C77.3545 77.28 78.4045 78.36 79.7545 78.36ZM77.5345 96H81.9145V80.49H77.5345V96ZM104.377 96.36C110.347 96.36 115.327 91.47 115.327 85.68C115.327 79.89 110.347 75.03 104.377 75.03C98.4673 75.03 93.4273 79.89 93.4273 85.68C93.4273 91.47 98.4673 96.36 104.377 96.36ZM104.377 92.34C100.927 92.34 97.9873 89.28 97.9873 85.68C97.9873 82.11 100.927 79.05 104.377 79.05C107.857 79.05 110.797 82.11 110.797 85.68C110.797 89.28 107.857 92.34 104.377 92.34ZM127.433 80.13C125.423 80.13 123.683 81.03 122.753 82.44V80.49H118.373V96H122.753V86.73L122.783 86.82C122.783 85.14 124.193 83.82 126.023 83.82C127.763 83.82 128.963 85.14 128.963 87.06V96H133.193V86.13C133.193 82.62 130.793 80.13 127.433 80.13ZM136.891 96H141.271V75.03H136.891V96ZM147.284 78.36C148.574 78.36 149.624 77.28 149.624 75.96C149.624 74.73 148.574 73.62 147.284 73.62C145.934 73.62 144.884 74.73 144.884 75.96C144.884 77.28 145.934 78.36 147.284 78.36ZM145.064 96H149.444V80.49H145.064V96ZM162.238 80.13C160.228 80.13 158.488 81.03 157.558 82.44V80.49H153.178V96H157.558V86.73L157.588 86.82C157.588 85.14 158.998 83.82 160.828 83.82C162.568 83.82 163.768 85.14 163.768 87.06V96H167.998V86.13C167.998 82.62 165.598 80.13 162.238 80.13ZM179.015 92.49C177.185 92.49 175.835 91.35 175.325 89.67H186.515C186.515 83.82 183.665 80.13 178.805 80.13C174.275 80.13 170.825 83.52 170.825 88.2C170.825 92.97 174.425 96.36 179.045 96.36C181.325 96.36 183.995 95.4 185.375 93.96L182.585 91.11C181.745 91.92 180.245 92.49 179.015 92.49ZM178.985 84C180.755 84 181.895 84.99 182.315 86.52H175.385C175.955 84.96 177.335 84 178.985 84ZM6.33 127.01V110.39H1.89V131H16.59V127.01H6.33ZM26.6423 127.49C24.8123 127.49 23.4623 126.35 22.9523 124.67H34.1423C34.1423 118.82 31.2923 115.13 26.4323 115.13C21.9023 115.13 18.4523 118.52 18.4523 123.2C18.4523 127.97 22.0523 131.36 26.6723 131.36C28.9523 131.36 31.6223 130.4 33.0023 128.96L30.2123 126.11C29.3723 126.92 27.8723 127.49 26.6423 127.49ZM26.6123 119C28.3823 119 29.5223 119.99 29.9423 121.52H23.0123C23.5823 119.96 24.9623 119 26.6123 119ZM44.0355 115.13C41.8755 115.13 39.7455 115.73 37.5555 116.84L39.0255 119.75C40.2555 119.12 41.6055 118.64 43.0455 118.64C45.5955 118.64 46.6155 120.08 46.6155 121.73V122.03C45.2955 121.52 43.9155 121.25 42.6555 121.25C39.0555 121.25 36.2055 123.35 36.2055 126.41C36.2055 129.38 38.7555 131.36 42.0555 131.36C43.7355 131.36 45.5055 130.7 46.6155 129.44V131H50.8455V121.73C50.8455 117.68 48.0855 115.13 44.0355 115.13ZM43.0455 128.33C41.5455 128.33 40.4355 127.55 40.4355 126.29C40.4355 125.03 41.6955 124.1 43.2855 124.1C44.4855 124.1 45.6255 124.31 46.6155 124.67V126.11C46.3155 127.55 44.7255 128.33 43.0455 128.33ZM58.9172 118.37V115.49H54.5372V131H58.9172V123.59C58.9172 120.68 60.9872 118.82 64.2272 118.82V115.13C61.8572 115.13 59.9372 116.36 58.9172 118.37ZM75.724 115.13C73.714 115.13 71.974 116.03 71.044 117.44V115.49H66.664V131H71.044V121.73L71.074 121.82C71.074 120.14 72.484 118.82 74.314 118.82C76.054 118.82 77.254 120.14 77.254 122.06V131H81.484V121.13C81.484 117.62 79.084 115.13 75.724 115.13ZM87.3717 113.36C88.6617 113.36 89.7117 112.28 89.7117 110.96C89.7117 109.73 88.6617 108.62 87.3717 108.62C86.0217 108.62 84.9717 109.73 84.9717 110.96C84.9717 112.28 86.0217 113.36 87.3717 113.36ZM85.1517 131H89.5317V115.49H85.1517V131ZM102.326 115.13C100.316 115.13 98.5755 116.03 97.6455 117.44V115.49H93.2655V131H97.6455V121.73L97.6755 121.82C97.6755 120.14 99.0855 118.82 100.916 118.82C102.656 118.82 103.856 120.14 103.856 122.06V131H108.086V121.13C108.086 117.62 105.686 115.13 102.326 115.13ZM123.003 115.49V117.59C121.953 116.12 119.973 115.13 117.873 115.13C113.973 115.13 111.003 118.16 111.003 122.48C111.003 126.8 113.973 129.86 117.873 129.86C119.913 129.86 121.773 128.96 123.003 127.46V129.17C123.003 131.18 121.203 132.47 118.383 132.47C116.583 132.47 114.783 131.9 113.763 131L112.233 134.09C113.763 135.29 116.343 136.16 119.073 136.16C123.963 136.16 127.413 133.34 127.413 129.35V115.49H123.003ZM119.253 126.17C117.063 126.17 115.503 124.64 115.503 122.48C115.503 120.32 117.063 118.82 119.253 118.82C121.443 118.82 123.003 120.32 123.003 122.48C123.003 124.64 121.443 126.17 119.253 126.17ZM139.765 131H144.175V124.31H149.035C153.505 124.31 156.805 121.43 156.805 117.35C156.805 113.27 153.505 110.39 149.035 110.39H139.765V131ZM144.175 120.26V114.44H148.555C150.745 114.44 152.245 115.58 152.245 117.35C152.245 119.12 150.745 120.26 148.555 120.26H144.175ZM159.449 131H163.829V110.03H159.449V131ZM174.582 115.13C172.422 115.13 170.292 115.73 168.102 116.84L169.572 119.75C170.802 119.12 172.152 118.64 173.592 118.64C176.142 118.64 177.162 120.08 177.162 121.73V122.03C175.842 121.52 174.462 121.25 173.202 121.25C169.602 121.25 166.752 123.35 166.752 126.41C166.752 129.38 169.302 131.36 172.602 131.36C174.282 131.36 176.052 130.7 177.162 129.44V131H181.392V121.73C181.392 117.68 178.632 115.13 174.582 115.13ZM173.592 128.33C172.092 128.33 170.982 127.55 170.982 126.29C170.982 125.03 172.242 124.1 173.832 124.1C175.032 124.1 176.172 124.31 177.162 124.67V126.11C176.862 127.55 175.272 128.33 173.592 128.33ZM193.244 127.16C192.944 127.46 192.344 127.67 191.744 127.67C190.934 127.67 190.274 126.95 190.274 125.93V119.03H193.634V115.49H190.274V111.23H186.074V115.49H183.944V119.03H186.074V126.62C186.074 129.41 187.994 131.36 190.724 131.36C191.984 131.36 193.394 130.82 194.294 130.01L193.244 127.16ZM202.227 114.65C202.227 113.63 202.887 112.91 203.697 112.91C204.297 112.91 204.897 113.12 205.197 113.42L206.247 110.75C205.347 109.94 203.937 109.4 202.677 109.4C199.947 109.4 198.027 111.35 198.027 114.14V115.49H195.897V119.03H198.027V131H202.227V119.03H205.587V115.49H202.227V114.65ZM216.024 131.36C220.614 131.36 224.454 127.64 224.454 123.23C224.454 118.82 220.614 115.13 216.024 115.13C211.404 115.13 207.534 118.82 207.534 123.23C207.534 127.64 211.404 131.36 216.024 131.36ZM216.024 127.67C213.684 127.67 211.734 125.63 211.734 123.23C211.734 120.83 213.684 118.82 216.024 118.82C218.334 118.82 220.284 120.83 220.284 123.23C220.284 125.63 218.334 127.67 216.024 127.67ZM231.798 118.37V115.49H227.418V131H231.798V123.59C231.798 120.68 233.868 118.82 237.108 118.82V115.13C234.738 115.13 232.818 116.36 231.798 118.37ZM258.085 115.13C255.775 115.13 253.855 116.24 253.045 117.95C252.085 116.21 250.255 115.13 248.125 115.13C246.205 115.13 244.675 116.06 243.925 117.53V115.49H239.545V131H243.925V121.64C243.925 119.99 245.155 118.82 246.925 118.82C248.515 118.82 249.655 120.08 249.655 121.88V131.03H253.855V121.64C253.855 119.99 255.115 118.82 256.855 118.82C258.475 118.82 259.615 120.08 259.615 121.88V131.03H263.815V121.13C263.815 117.62 261.325 115.13 258.085 115.13Z" fill="#0A033C"/>
<path d="M36.8186 4.54V2.26H26.4786V16H36.8186V13.72H28.9786V10.14H36.0786V7.86H28.9786V4.54H36.8186ZM46.993 2.02V7.26C46.173 6.1 44.933 5.42 43.413 5.42C40.673 5.42 38.673 7.66 38.673 10.82C38.673 14 40.673 16.24 43.413 16.24C44.933 16.24 46.173 15.56 46.993 14.4V16H49.433V2.02H46.993ZM44.073 14.16C42.333 14.16 41.093 12.76 41.093 10.82C41.093 8.88 42.333 7.5 44.073 7.5C45.793 7.5 46.993 8.88 46.993 10.82C46.993 12.76 45.793 14.16 44.073 14.16ZM59.1798 5.66V12.2C59.0198 13.3 57.9598 14.16 56.6798 14.16C55.3998 14.16 54.4998 13.16 54.4998 11.76V5.66H52.1398V12.24C52.1398 14.58 53.7198 16.24 55.9798 16.24C57.3398 16.24 58.5398 15.58 59.1798 14.62V16H61.6198V5.66H59.1798ZM67.7688 16H70.0688L74.4488 5.66H71.8488L68.9088 13.18L65.9087 5.66H63.3288L67.7688 16ZM77.3847 4.1C78.1447 4.1 78.7647 3.44 78.7647 2.7C78.7647 1.96 78.1447 1.32 77.3847 1.32C76.6047 1.32 75.9847 1.96 75.9847 2.7C75.9847 3.44 76.6047 4.1 77.3847 4.1ZM76.1447 16H78.5847V5.66H76.1447V16Z" fill="#0A033C"/>
<rect width="20" height="20" rx="5" fill="#FF6652"/>
<path d="M5.83584 5.4165C5.83551 5.4165 5.83515 5.4165 5.83483 5.4165C5.72133 5.4165 5.61458 5.46075 5.53398 5.54115C5.45248 5.62244 5.40759 5.73069 5.40759 5.84592V12.2849C5.40759 12.521 5.60044 12.7136 5.83753 12.7142C6.83705 12.7166 8.51165 12.9249 9.66688 14.1339V7.39526C9.66688 7.31522 9.64644 7.24002 9.60785 7.1778C8.65969 5.65085 6.83762 5.41885 5.83584 5.4165Z" fill="white"/>
<path d="M14.593 12.285V5.84592C14.593 5.73069 14.5481 5.62244 14.4666 5.54115C14.386 5.46075 14.2792 5.4165 14.1658 5.4165C14.1654 5.4165 14.1651 5.4165 14.1647 5.4165C13.163 5.41889 11.3409 5.65089 10.3927 7.17784C10.3541 7.24007 10.3337 7.31526 10.3337 7.3953V14.1339C11.489 12.9249 13.1636 12.7166 14.1631 12.7142C14.4001 12.7136 14.593 12.5211 14.593 12.285Z" fill="white"/>
<path d="M15.5704 6.90137H15.2591V12.2849C15.2591 12.8877 14.7679 13.3793 14.1641 13.3808C13.3163 13.3828 11.9184 13.5486 10.9283 14.4856C12.6406 14.0664 14.4456 14.3389 15.4743 14.5734C15.6027 14.6026 15.7355 14.5724 15.8384 14.4904C15.9409 14.4085 15.9998 14.2862 15.9998 14.155V7.3307C15.9998 7.09397 15.8071 6.90137 15.5704 6.90137Z" fill="white"/>
<path d="M4.74069 12.2849V6.90137H4.42933C4.19265 6.90137 4 7.09397 4 7.3307V14.1548C4 14.2862 4.05883 14.4084 4.16137 14.4902C4.2642 14.5722 4.39681 14.6026 4.52546 14.5732C5.55415 14.3388 7.3592 14.0663 9.07137 14.4855C8.08139 13.5485 6.68348 13.3828 5.83568 13.3808C5.23192 13.3793 4.74069 12.8877 4.74069 12.2849Z" fill="white"/>
</svg>
